<mxfile host="app.diagrams.net" modified="2024-07-25T22:08:00.697Z" agent="Mozilla/5.0 (X11; Linux x86_64) AppleWebKit/537.36 (KHTML, like Gecko) Chrome/128.0.0.0 Safari/537.36" etag="V_SrynRuVtcN_eIDA_5L" version="22.0.0" type="device">
  <diagram name="Page-1" id="_43rhH1PAZqF1_ZtrR9j">
    <mxGraphModel dx="755" dy="414" grid="1" gridSize="10" guides="1" tooltips="1" connect="1" arrows="1" fold="1" page="1" pageScale="1" pageWidth="840" pageHeight="840" math="0" shadow="0">
      <root>
        <mxCell id="0" />
        <mxCell id="1" parent="0" />
        <mxCell id="OnSp5SZFbmxiGrYIw4q5-4" style="edgeStyle=orthogonalEdgeStyle;rounded=0;orthogonalLoop=1;jettySize=auto;html=1;entryX=0;entryY=0.5;entryDx=0;entryDy=0;" edge="1" parent="1" source="OnSp5SZFbmxiGrYIw4q5-2" target="OnSp5SZFbmxiGrYIw4q5-3">
          <mxGeometry relative="1" as="geometry" />
        </mxCell>
        <mxCell id="OnSp5SZFbmxiGrYIw4q5-2" value="&lt;font style=&quot;font-size: 12px;&quot;&gt;START&lt;br&gt;ARRAY&lt;/font&gt;" style="shape=process;whiteSpace=wrap;html=1;backgroundOutline=1;" vertex="1" parent="1">
          <mxGeometry x="40" y="40" width="120" height="80" as="geometry" />
        </mxCell>
        <mxCell id="OnSp5SZFbmxiGrYIw4q5-6" style="edgeStyle=orthogonalEdgeStyle;rounded=0;orthogonalLoop=1;jettySize=auto;html=1;entryX=0;entryY=0.5;entryDx=0;entryDy=0;" edge="1" parent="1" source="OnSp5SZFbmxiGrYIw4q5-3" target="OnSp5SZFbmxiGrYIw4q5-5">
          <mxGeometry relative="1" as="geometry" />
        </mxCell>
        <mxCell id="OnSp5SZFbmxiGrYIw4q5-53" style="edgeStyle=orthogonalEdgeStyle;rounded=0;orthogonalLoop=1;jettySize=auto;html=1;exitX=0.5;exitY=1;exitDx=0;exitDy=0;entryX=0.5;entryY=0;entryDx=0;entryDy=0;" edge="1" parent="1" source="OnSp5SZFbmxiGrYIw4q5-3" target="OnSp5SZFbmxiGrYIw4q5-48">
          <mxGeometry relative="1" as="geometry" />
        </mxCell>
        <mxCell id="OnSp5SZFbmxiGrYIw4q5-3" value="PREPROCESSING" style="rounded=0;whiteSpace=wrap;html=1;" vertex="1" parent="1">
          <mxGeometry x="240" y="50" width="120" height="60" as="geometry" />
        </mxCell>
        <mxCell id="OnSp5SZFbmxiGrYIw4q5-5" value="DIVIDE RANGE &lt;br&gt;INTO SECTIONS" style="rounded=0;whiteSpace=wrap;html=1;" vertex="1" parent="1">
          <mxGeometry x="440" y="50" width="120" height="60" as="geometry" />
        </mxCell>
        <mxCell id="OnSp5SZFbmxiGrYIw4q5-37" style="edgeStyle=orthogonalEdgeStyle;rounded=0;orthogonalLoop=1;jettySize=auto;html=1;exitX=0.5;exitY=0;exitDx=0;exitDy=0;entryX=0.5;entryY=1;entryDx=0;entryDy=0;" edge="1" parent="1" source="OnSp5SZFbmxiGrYIw4q5-7" target="OnSp5SZFbmxiGrYIw4q5-5">
          <mxGeometry relative="1" as="geometry" />
        </mxCell>
        <mxCell id="OnSp5SZFbmxiGrYIw4q5-7" value="CALCULATE&lt;br&gt;ΔMaxAvg&lt;br&gt;ΔAvgMin" style="shape=process;whiteSpace=wrap;html=1;backgroundOutline=1;" vertex="1" parent="1">
          <mxGeometry x="440" y="130" width="120" height="60" as="geometry" />
        </mxCell>
        <mxCell id="OnSp5SZFbmxiGrYIw4q5-11" style="edgeStyle=orthogonalEdgeStyle;rounded=0;orthogonalLoop=1;jettySize=auto;html=1;entryX=0;entryY=0.5;entryDx=0;entryDy=0;" edge="1" parent="1" source="OnSp5SZFbmxiGrYIw4q5-8" target="OnSp5SZFbmxiGrYIw4q5-10">
          <mxGeometry relative="1" as="geometry" />
        </mxCell>
        <mxCell id="OnSp5SZFbmxiGrYIw4q5-36" style="edgeStyle=orthogonalEdgeStyle;rounded=0;orthogonalLoop=1;jettySize=auto;html=1;exitX=0.5;exitY=0;exitDx=0;exitDy=0;entryX=0.5;entryY=1;entryDx=0;entryDy=0;" edge="1" parent="1" source="OnSp5SZFbmxiGrYIw4q5-8" target="OnSp5SZFbmxiGrYIw4q5-7">
          <mxGeometry relative="1" as="geometry" />
        </mxCell>
        <mxCell id="OnSp5SZFbmxiGrYIw4q5-8" value="CALCULATE&lt;br&gt;nAboveSections&lt;br&gt;nBelowSections" style="shape=process;whiteSpace=wrap;html=1;backgroundOutline=1;" vertex="1" parent="1">
          <mxGeometry x="440" y="210" width="120" height="60" as="geometry" />
        </mxCell>
        <mxCell id="OnSp5SZFbmxiGrYIw4q5-12" style="edgeStyle=orthogonalEdgeStyle;rounded=0;orthogonalLoop=1;jettySize=auto;html=1;entryX=0;entryY=0.5;entryDx=0;entryDy=0;" edge="1" parent="1" source="OnSp5SZFbmxiGrYIw4q5-9" target="OnSp5SZFbmxiGrYIw4q5-10">
          <mxGeometry relative="1" as="geometry" />
        </mxCell>
        <mxCell id="OnSp5SZFbmxiGrYIw4q5-35" style="edgeStyle=orthogonalEdgeStyle;rounded=0;orthogonalLoop=1;jettySize=auto;html=1;exitX=0.5;exitY=0;exitDx=0;exitDy=0;entryX=0.5;entryY=1;entryDx=0;entryDy=0;" edge="1" parent="1" source="OnSp5SZFbmxiGrYIw4q5-9" target="OnSp5SZFbmxiGrYIw4q5-8">
          <mxGeometry relative="1" as="geometry" />
        </mxCell>
        <mxCell id="OnSp5SZFbmxiGrYIw4q5-9" value="SPLIT ARRAY&lt;br&gt;TO SECTIONS" style="shape=process;whiteSpace=wrap;html=1;backgroundOutline=1;" vertex="1" parent="1">
          <mxGeometry x="440" y="290" width="120" height="60" as="geometry" />
        </mxCell>
        <mxCell id="OnSp5SZFbmxiGrYIw4q5-22" style="edgeStyle=orthogonalEdgeStyle;rounded=0;orthogonalLoop=1;jettySize=auto;html=1;entryX=0.5;entryY=0;entryDx=0;entryDy=0;" edge="1" parent="1" source="OnSp5SZFbmxiGrYIw4q5-10" target="OnSp5SZFbmxiGrYIw4q5-19">
          <mxGeometry relative="1" as="geometry" />
        </mxCell>
        <mxCell id="OnSp5SZFbmxiGrYIw4q5-23" style="edgeStyle=orthogonalEdgeStyle;rounded=0;orthogonalLoop=1;jettySize=auto;html=1;exitX=1;exitY=0.5;exitDx=0;exitDy=0;entryX=0;entryY=0.5;entryDx=0;entryDy=0;" edge="1" parent="1" source="OnSp5SZFbmxiGrYIw4q5-10" target="OnSp5SZFbmxiGrYIw4q5-20">
          <mxGeometry relative="1" as="geometry" />
        </mxCell>
        <mxCell id="OnSp5SZFbmxiGrYIw4q5-10" value="ROUND TO CLOSEST STEPS&lt;br&gt;FROM AVG" style="rounded=0;whiteSpace=wrap;html=1;" vertex="1" parent="1">
          <mxGeometry x="640" y="50" width="120" height="60" as="geometry" />
        </mxCell>
        <mxCell id="OnSp5SZFbmxiGrYIw4q5-39" style="edgeStyle=orthogonalEdgeStyle;rounded=0;orthogonalLoop=1;jettySize=auto;html=1;exitX=0.5;exitY=1;exitDx=0;exitDy=0;entryX=0.5;entryY=0;entryDx=0;entryDy=0;" edge="1" parent="1" source="OnSp5SZFbmxiGrYIw4q5-19" target="OnSp5SZFbmxiGrYIw4q5-38">
          <mxGeometry relative="1" as="geometry" />
        </mxCell>
        <mxCell id="OnSp5SZFbmxiGrYIw4q5-40" style="edgeStyle=orthogonalEdgeStyle;rounded=0;orthogonalLoop=1;jettySize=auto;html=1;entryX=0;entryY=0.5;entryDx=0;entryDy=0;" edge="1" parent="1" source="OnSp5SZFbmxiGrYIw4q5-19" target="OnSp5SZFbmxiGrYIw4q5-25">
          <mxGeometry relative="1" as="geometry" />
        </mxCell>
        <mxCell id="OnSp5SZFbmxiGrYIw4q5-19" value="GENERATE DIFF ARRAY" style="rounded=1;whiteSpace=wrap;html=1;" vertex="1" parent="1">
          <mxGeometry x="640" y="130" width="120" height="60" as="geometry" />
        </mxCell>
        <mxCell id="OnSp5SZFbmxiGrYIw4q5-20" value="GENERATE COMPRESSED STRING" style="rounded=0;whiteSpace=wrap;html=1;" vertex="1" parent="1">
          <mxGeometry x="840" y="50" width="120" height="60" as="geometry" />
        </mxCell>
        <mxCell id="OnSp5SZFbmxiGrYIw4q5-43" style="edgeStyle=orthogonalEdgeStyle;rounded=0;orthogonalLoop=1;jettySize=auto;html=1;exitX=0.5;exitY=0;exitDx=0;exitDy=0;entryX=0.5;entryY=1;entryDx=0;entryDy=0;" edge="1" parent="1" source="OnSp5SZFbmxiGrYIw4q5-24" target="OnSp5SZFbmxiGrYIw4q5-20">
          <mxGeometry relative="1" as="geometry" />
        </mxCell>
        <mxCell id="OnSp5SZFbmxiGrYIw4q5-24" value="WRITE&lt;br&gt;HEADER" style="shape=process;whiteSpace=wrap;html=1;backgroundOutline=1;" vertex="1" parent="1">
          <mxGeometry x="840" y="130" width="120" height="60" as="geometry" />
        </mxCell>
        <mxCell id="OnSp5SZFbmxiGrYIw4q5-45" style="edgeStyle=orthogonalEdgeStyle;rounded=0;orthogonalLoop=1;jettySize=auto;html=1;exitX=0.5;exitY=0;exitDx=0;exitDy=0;entryX=0.5;entryY=1;entryDx=0;entryDy=0;" edge="1" parent="1" source="OnSp5SZFbmxiGrYIw4q5-25" target="OnSp5SZFbmxiGrYIw4q5-24">
          <mxGeometry relative="1" as="geometry" />
        </mxCell>
        <mxCell id="OnSp5SZFbmxiGrYIw4q5-25" value="WRITE CONTENTS" style="shape=process;whiteSpace=wrap;html=1;backgroundOutline=1;" vertex="1" parent="1">
          <mxGeometry x="840" y="210" width="120" height="60" as="geometry" />
        </mxCell>
        <mxCell id="OnSp5SZFbmxiGrYIw4q5-33" style="edgeStyle=orthogonalEdgeStyle;rounded=0;orthogonalLoop=1;jettySize=auto;html=1;exitX=0;exitY=0.5;exitDx=0;exitDy=0;entryX=1;entryY=0.5;entryDx=0;entryDy=0;" edge="1" parent="1" source="OnSp5SZFbmxiGrYIw4q5-27" target="OnSp5SZFbmxiGrYIw4q5-24">
          <mxGeometry relative="1" as="geometry" />
        </mxCell>
        <mxCell id="OnSp5SZFbmxiGrYIw4q5-27" value="CALCULATE STATISTICS" style="shape=process;whiteSpace=wrap;html=1;backgroundOutline=1;" vertex="1" parent="1">
          <mxGeometry x="1000" y="130" width="120" height="60" as="geometry" />
        </mxCell>
        <mxCell id="OnSp5SZFbmxiGrYIw4q5-28" value="HEADER" style="swimlane;fontStyle=0;childLayout=stackLayout;horizontal=1;startSize=30;horizontalStack=0;resizeParent=1;resizeParentMax=0;resizeLast=0;collapsible=1;marginBottom=0;whiteSpace=wrap;html=1;" vertex="1" parent="1">
          <mxGeometry x="1160" y="85" width="140" height="150" as="geometry" />
        </mxCell>
        <mxCell id="OnSp5SZFbmxiGrYIw4q5-29" value="MIN" style="text;strokeColor=none;fillColor=none;align=left;verticalAlign=middle;spacingLeft=4;spacingRight=4;overflow=hidden;points=[[0,0.5],[1,0.5]];portConstraint=eastwest;rotatable=0;whiteSpace=wrap;html=1;" vertex="1" parent="OnSp5SZFbmxiGrYIw4q5-28">
          <mxGeometry y="30" width="140" height="30" as="geometry" />
        </mxCell>
        <mxCell id="OnSp5SZFbmxiGrYIw4q5-30" value="MAX" style="text;strokeColor=none;fillColor=none;align=left;verticalAlign=middle;spacingLeft=4;spacingRight=4;overflow=hidden;points=[[0,0.5],[1,0.5]];portConstraint=eastwest;rotatable=0;whiteSpace=wrap;html=1;" vertex="1" parent="OnSp5SZFbmxiGrYIw4q5-28">
          <mxGeometry y="60" width="140" height="30" as="geometry" />
        </mxCell>
        <mxCell id="OnSp5SZFbmxiGrYIw4q5-31" value="AVG" style="text;strokeColor=none;fillColor=none;align=left;verticalAlign=middle;spacingLeft=4;spacingRight=4;overflow=hidden;points=[[0,0.5],[1,0.5]];portConstraint=eastwest;rotatable=0;whiteSpace=wrap;html=1;" vertex="1" parent="OnSp5SZFbmxiGrYIw4q5-28">
          <mxGeometry y="90" width="140" height="30" as="geometry" />
        </mxCell>
        <mxCell id="OnSp5SZFbmxiGrYIw4q5-32" value="OVER/UNDER STEPS" style="text;strokeColor=none;fillColor=none;align=left;verticalAlign=middle;spacingLeft=4;spacingRight=4;overflow=hidden;points=[[0,0.5],[1,0.5]];portConstraint=eastwest;rotatable=0;whiteSpace=wrap;html=1;" vertex="1" parent="OnSp5SZFbmxiGrYIw4q5-28">
          <mxGeometry y="120" width="140" height="30" as="geometry" />
        </mxCell>
        <mxCell id="OnSp5SZFbmxiGrYIw4q5-34" style="edgeStyle=orthogonalEdgeStyle;rounded=0;orthogonalLoop=1;jettySize=auto;html=1;exitX=0;exitY=0.5;exitDx=0;exitDy=0;entryX=1;entryY=0.5;entryDx=0;entryDy=0;" edge="1" parent="1" source="OnSp5SZFbmxiGrYIw4q5-30" target="OnSp5SZFbmxiGrYIw4q5-27">
          <mxGeometry relative="1" as="geometry" />
        </mxCell>
        <mxCell id="OnSp5SZFbmxiGrYIw4q5-38" value="GENERATE FINAL DIFF ARRAY &lt;br&gt;[AVG + DIFF]" style="rounded=1;whiteSpace=wrap;html=1;" vertex="1" parent="1">
          <mxGeometry x="640" y="210" width="120" height="60" as="geometry" />
        </mxCell>
        <mxCell id="OnSp5SZFbmxiGrYIw4q5-65" style="edgeStyle=orthogonalEdgeStyle;rounded=0;orthogonalLoop=1;jettySize=auto;html=1;entryX=0.5;entryY=0;entryDx=0;entryDy=0;" edge="1" parent="1" source="OnSp5SZFbmxiGrYIw4q5-47" target="OnSp5SZFbmxiGrYIw4q5-57">
          <mxGeometry relative="1" as="geometry">
            <Array as="points">
              <mxPoint x="180" y="240" />
            </Array>
          </mxGeometry>
        </mxCell>
        <mxCell id="OnSp5SZFbmxiGrYIw4q5-47" value="CONVERT TO&lt;br&gt;MANIPULABLE&lt;br&gt;ARRAY" style="shape=process;whiteSpace=wrap;html=1;backgroundOutline=1;" vertex="1" parent="1">
          <mxGeometry x="240" y="210" width="120" height="60" as="geometry" />
        </mxCell>
        <mxCell id="OnSp5SZFbmxiGrYIw4q5-54" style="edgeStyle=orthogonalEdgeStyle;rounded=0;orthogonalLoop=1;jettySize=auto;html=1;exitX=0.5;exitY=1;exitDx=0;exitDy=0;entryX=0.5;entryY=0;entryDx=0;entryDy=0;" edge="1" parent="1" source="OnSp5SZFbmxiGrYIw4q5-48" target="OnSp5SZFbmxiGrYIw4q5-47">
          <mxGeometry relative="1" as="geometry" />
        </mxCell>
        <mxCell id="OnSp5SZFbmxiGrYIw4q5-48" value="CALCULATE STATISTICS&lt;br&gt;(min, avg, max)" style="shape=process;whiteSpace=wrap;html=1;backgroundOutline=1;" vertex="1" parent="1">
          <mxGeometry x="240" y="130" width="120" height="60" as="geometry" />
        </mxCell>
        <mxCell id="OnSp5SZFbmxiGrYIw4q5-57" value="IMAGES" style="swimlane;fontStyle=0;childLayout=stackLayout;horizontal=1;startSize=30;horizontalStack=0;resizeParent=1;resizeParentMax=0;resizeLast=0;collapsible=1;marginBottom=0;whiteSpace=wrap;html=1;" vertex="1" parent="1">
          <mxGeometry x="40" y="360" width="280" height="120" as="geometry" />
        </mxCell>
        <mxCell id="OnSp5SZFbmxiGrYIw4q5-58" value="&lt;font style=&quot;font-size: 11px;&quot;&gt;CONVERT TO ARRAY OF RGB VALUES&lt;/font&gt;" style="text;strokeColor=none;fillColor=none;align=left;verticalAlign=middle;spacingLeft=4;spacingRight=4;overflow=hidden;points=[[0,0.5],[1,0.5]];portConstraint=eastwest;rotatable=0;whiteSpace=wrap;html=1;" vertex="1" parent="OnSp5SZFbmxiGrYIw4q5-57">
          <mxGeometry y="30" width="280" height="30" as="geometry" />
        </mxCell>
        <mxCell id="OnSp5SZFbmxiGrYIw4q5-59" value="CREATE SQUARES FROM COMP. LEVEL" style="text;strokeColor=none;fillColor=none;align=left;verticalAlign=middle;spacingLeft=4;spacingRight=4;overflow=hidden;points=[[0,0.5],[1,0.5]];portConstraint=eastwest;rotatable=0;whiteSpace=wrap;html=1;" vertex="1" parent="OnSp5SZFbmxiGrYIw4q5-57">
          <mxGeometry y="60" width="280" height="30" as="geometry" />
        </mxCell>
        <mxCell id="OnSp5SZFbmxiGrYIw4q5-60" value="TREAT EACH CHANNEL AS ONE ARRAY" style="text;strokeColor=none;fillColor=none;align=left;verticalAlign=middle;spacingLeft=4;spacingRight=4;overflow=hidden;points=[[0,0.5],[1,0.5]];portConstraint=eastwest;rotatable=0;whiteSpace=wrap;html=1;" vertex="1" parent="OnSp5SZFbmxiGrYIw4q5-57">
          <mxGeometry y="90" width="280" height="30" as="geometry" />
        </mxCell>
      </root>
    </mxGraphModel>
  </diagram>
</mxfile>
